<svg width="261" height="260" viewBox="0 0 261 260" fill="none" xmlns="http://www.w3.org/2000/svg">
<path d="M138.989 127.588C300.42 84.3019 254.754 5.24637 136.609 123.454C254.816 5.24637 175.698 -40.3578 132.474 121.073C175.761 -40.3578 84.4272 -40.3578 127.651 121.073C84.3645 -40.4204 5.309 5.24636 123.454 123.391C5.309 5.24636 -40.3578 84.3019 121.073 127.588C-40.3578 84.3019 -40.3578 175.635 121.073 132.412C-40.3578 175.698 5.309 254.754 123.454 136.546C5.24637 254.754 84.3645 300.358 127.588 138.927C84.3019 300.358 175.635 300.358 132.412 138.927C175.698 300.358 254.754 254.691 136.546 136.546C254.754 254.754 300.358 175.635 138.927 132.412C300.42 175.635 300.42 84.3019 138.989 127.588Z" fill="#C4A1FF"/>
</svg>
